<svg xmlns="http://www.w3.org/2000/svg" viewBox="0 0 2000 1250" role="img" aria-labelledby="title desc">
  <title id="title">Network Security Lab Topology</title>
  <desc id="desc">University server topology with three router and hosting VMs, monitoring and management VMs, and a MacBook Pro running local LLM inference.</desc>
  <defs>
    <marker id="arrow" viewBox="0 0 10 10" refX="9" refY="5" markerWidth="8" markerHeight="8" orient="auto-start-reverse">
      <path d="M 0 0 L 10 5 L 0 10 z" fill="#6a4bc3" />
    </marker>
    <style>
      .canvas { fill: #ffffff; }
      .server-frame { fill: #ffffff; stroke: #b7b7b7; stroke-width: 4; stroke-dasharray: 14 10; }
      .vm-frame { fill: #ffffff; stroke: #b8b8b8; stroke-width: 4; stroke-dasharray: 11 8; }
      .vlan { fill: #f7fff9; stroke: #00a63f; stroke-width: 4; }
      .infra { fill: #fffafa; stroke: #a9332b; stroke-width: 4; }
      .monitor { fill: #f7fbff; stroke: #1d75bc; stroke-width: 4; }
      .management { fill: #fffaf0; stroke: #d18a00; stroke-width: 4; }
      .llm { fill: #fbf8ff; stroke: #6a4bc3; stroke-width: 4; }
      .device { fill: #ffffff; stroke: #1f1f1f; stroke-width: 4; }
      .router { fill: #ffffff; stroke: #111111; stroke-width: 4; }
      .link { fill: none; stroke: #111111; stroke-width: 4; stroke-linecap: round; stroke-linejoin: round; }
      .tap-link { fill: none; stroke: #1d75bc; stroke-width: 3.5; stroke-dasharray: 10 8; stroke-linecap: round; stroke-linejoin: round; }
      .mgmt-link { fill: none; stroke: #d18a00; stroke-width: 3.5; stroke-dasharray: 10 8; stroke-linecap: round; stroke-linejoin: round; }
      .api-link { fill: none; stroke: #6a4bc3; stroke-width: 4.5; stroke-linecap: round; stroke-linejoin: round; marker-end: url(#arrow); }
      .title { font: 700 36px Arial, Helvetica, sans-serif; fill: #222222; }
      .section-title { font: 700 30px Arial, Helvetica, sans-serif; fill: #222222; }
      .label { font: 600 25px Arial, Helvetica, sans-serif; fill: #333333; }
      .small { font: 500 21px Arial, Helvetica, sans-serif; fill: #333333; }
      .tiny { font: 600 18px Arial, Helvetica, sans-serif; fill: #333333; }
      .green { fill: #009a36; }
      .red { fill: #a9332b; }
      .blue { fill: #1d75bc; }
      .amber { fill: #a66300; }
      .purple { fill: #5b3fb4; }
      .muted { fill: #777777; }
      .pill { fill: #f1f1f1; stroke: #cccccc; stroke-width: 2; }
    </style>
  </defs>

  <rect class="canvas" width="2000" height="1250" />
  <text class="title" x="60" y="62">Network Security Lab Topology</text>

  <rect class="server-frame" x="60" y="105" width="1520" height="1050" rx="10" />
  <text class="section-title" x="92" y="155">University Server</text>
  <text class="small muted" x="92" y="185">TAP interfaces tap62 to tap66</text>

  <g id="infrastructure">
    <text class="label red" x="470" y="155">Infrastructure VLAN</text>
    <rect class="infra" x="390" y="170" width="420" height="150" rx="3" />
    <rect class="device" x="545" y="215" width="110" height="68" rx="3" />
    <text class="label" x="571" y="258">SW</text>
    <path class="link" d="M 600 283 L 600 356 L 650 356 L 650 487" />
    <rect x="570" y="342" width="170" height="34" rx="5" fill="#d92626" />
    <text class="tiny" x="590" y="365" fill="#ffffff">default route</text>
  </g>

  <path class="link" d="M 698 535 L 922 395" />
  <path class="link" d="M 698 535 L 922 735" />
  <path class="link" d="M 970 443 L 970 687" />

  <path class="tap-link" d="M 650 585 C 630 680 565 735 485 760" />
  <path class="tap-link" d="M 970 445 C 885 610 720 715 570 760" />
  <path class="tap-link" d="M 970 785 C 855 835 745 855 680 875" />
  <text class="tiny blue" x="494" y="748">IDS mirror</text>

  <path class="mgmt-link" d="M 698 555 C 800 710 875 845 950 950" />
  <path class="mgmt-link" d="M 1018 395 C 1165 590 1250 780 1295 950" />
  <path class="mgmt-link" d="M 1018 735 C 1120 810 1190 885 1238 950" />
  <text class="tiny amber" x="1168" y="928">telemetry</text>

  <path class="api-link" d="M 1500 1043 L 1630 1043" />
  <text class="tiny purple" x="1510" y="1024">network / API</text>

  <g id="router-1">
    <rect class="vm-frame" x="90" y="380" width="640" height="300" rx="10" />
    <text class="section-title muted" x="120" y="425">Router 1 &amp; Hosting VM</text>
    <rect class="pill" x="610" y="398" width="92" height="34" rx="17" />
    <text class="tiny" x="633" y="421">tap62</text>
    <text class="label green" x="145" y="468">R1 Container VLAN</text>
    <rect class="vlan" x="120" y="485" width="515" height="155" rx="3" />
    <rect class="device" x="150" y="508" width="230" height="46" rx="3" />
    <rect class="device" x="150" y="562" width="230" height="46" rx="3" />
    <rect class="device" x="150" y="616" width="230" height="46" rx="3" />
    <text class="small" x="183" y="538">Container 0</text>
    <text class="small" x="183" y="592">Container 1</text>
    <text class="small" x="183" y="646">Container 2</text>
    <rect class="device" x="430" y="538" width="95" height="78" rx="3" />
    <text class="label" x="455" y="586">SW</text>
    <path class="link" d="M 380 531 L 430 557" />
    <path class="link" d="M 380 585 L 430 585" />
    <path class="link" d="M 380 639 L 430 600" />
    <path class="link" d="M 525 577 L 602 577" />
    <circle class="router" cx="650" cy="535" r="48" />
    <text class="label" x="631" y="545">R1</text>
  </g>

  <g id="router-2">
    <rect class="vm-frame" x="880" y="245" width="620" height="300" rx="10" />
    <text class="section-title muted" x="1010" y="290">Router 2 &amp; Hosting VM</text>
    <rect class="pill" x="1380" y="263" width="92" height="34" rx="17" />
    <text class="tiny" x="1403" y="286">tap63</text>
    <circle class="router" cx="970" cy="395" r="48" />
    <text class="label" x="951" y="405">R2</text>
    <text class="label green" x="1088" y="333">R2 Container VLAN</text>
    <rect class="vlan" x="1030" y="350" width="420" height="155" rx="3" />
    <rect class="device" x="1080" y="390" width="95" height="78" rx="3" />
    <text class="label" x="1105" y="438">SW</text>
    <path class="link" d="M 1018 395 L 1080 430" />
    <rect class="device" x="1245" y="368" width="170" height="46" rx="3" />
    <rect class="device" x="1245" y="422" width="170" height="46" rx="3" />
    <rect class="device" x="1245" y="476" width="170" height="46" rx="3" />
    <text class="small" x="1266" y="398">Container 0</text>
    <text class="small" x="1266" y="452">Container 1</text>
    <text class="small" x="1266" y="506">Container 2</text>
    <path class="link" d="M 1175 405 L 1245 391" />
    <path class="link" d="M 1175 430 L 1245 445" />
    <path class="link" d="M 1175 455 L 1245 499" />
  </g>

  <g id="router-3">
    <rect class="vm-frame" x="880" y="585" width="620" height="300" rx="10" />
    <text class="section-title muted" x="1010" y="630">Router 3 &amp; Hosting VM</text>
    <rect class="pill" x="1380" y="603" width="92" height="34" rx="17" />
    <text class="tiny" x="1403" y="626">tap64</text>
    <circle class="router" cx="970" cy="735" r="48" />
    <text class="label" x="951" y="745">R3</text>
    <text class="label green" x="1088" y="673">R3 Container VLAN</text>
    <rect class="vlan" x="1030" y="690" width="420" height="155" rx="3" />
    <rect class="device" x="1080" y="730" width="95" height="78" rx="3" />
    <text class="label" x="1105" y="778">SW</text>
    <path class="link" d="M 1018 735 L 1080 770" />
    <rect class="device" x="1245" y="708" width="170" height="46" rx="3" />
    <rect class="device" x="1245" y="762" width="170" height="46" rx="3" />
    <rect class="device" x="1245" y="816" width="170" height="46" rx="3" />
    <text class="small" x="1266" y="738">Container 0</text>
    <text class="small" x="1266" y="792">Container 1</text>
    <text class="small" x="1266" y="846">Container 2</text>
    <path class="link" d="M 1175 745 L 1245 731" />
    <path class="link" d="M 1175 770 L 1245 785" />
    <path class="link" d="M 1175 795 L 1245 839" />
  </g>

  <g id="monitoring-vm">
    <rect class="vm-frame" x="90" y="760" width="640" height="300" rx="10" />
    <text class="section-title muted" x="120" y="805">Monitoring / Security VM</text>
    <rect class="pill" x="610" y="778" width="92" height="34" rx="17" />
    <text class="tiny" x="633" y="801">tap65</text>
    <text class="label blue" x="145" y="848">IDS Sensor and Packet Analysis</text>
    <rect class="monitor" x="120" y="865" width="560" height="145" rx="3" />
    <rect class="device" x="155" y="902" width="150" height="70" rx="3" />
    <text class="small" x="194" y="933">IDS</text>
    <text class="tiny" x="187" y="957">sensor</text>
    <rect class="device" x="345" y="902" width="150" height="70" rx="3" />
    <text class="small" x="381" y="933">Packet</text>
    <text class="tiny" x="379" y="957">capture</text>
    <rect class="device" x="535" y="902" width="110" height="70" rx="3" />
    <text class="small" x="560" y="933">Alerts</text>
    <text class="tiny" x="557" y="957">events</text>
  </g>

  <g id="management-vm">
    <rect class="vm-frame" x="760" y="950" width="740" height="165" rx="10" />
    <text class="section-title muted" x="790" y="995">Management / Observability VM</text>
    <rect class="pill" x="1380" y="968" width="92" height="34" rx="17" />
    <text class="tiny" x="1403" y="991">tap66</text>
    <text class="label amber" x="815" y="1038">Dashboards, Logs, Metrics, Orchestration</text>
    <rect class="management" x="790" y="1052" width="660" height="45" rx="3" />
    <rect class="device" x="825" y="1062" width="155" height="30" rx="3" />
    <text class="tiny" x="849" y="1083">Dashboards</text>
    <rect class="device" x="1035" y="1062" width="155" height="30" rx="3" />
    <text class="tiny" x="1074" y="1083">Telemetry</text>
    <rect class="device" x="1245" y="1062" width="155" height="30" rx="3" />
    <text class="tiny" x="1306" y="1083">API</text>
  </g>

  <g id="local-llm">
    <rect class="llm" x="1630" y="940" width="310" height="205" rx="10" />
    <text class="section-title purple" x="1660" y="990">MacBook Pro</text>
    <text class="small" x="1662" y="1022">M3 Pro, 18 GB</text>
    <rect class="device" x="1662" y="1052" width="245" height="48" rx="3" />
    <text class="small" x="1692" y="1083">Ollama / Local LLM</text>
    <text class="tiny purple" x="1682" y="1123">local inference machine</text>
  </g>
</svg>
